<?xml version="1.0" standalone="no"?>
<!DOCTYPE svg PUBLIC "-//W3C//DTD SVG 20010904//EN"
 "http://www.w3.org/TR/2001/REC-SVG-20010904/DTD/svg10.dtd">
<svg version="1.0" xmlns="http://www.w3.org/2000/svg"
 width="841.000000pt" height="297.000000pt" viewBox="0 0 841.000000 297.000000"
 preserveAspectRatio="xMidYMid meet">

<g transform="translate(0.000000,297.000000) scale(0.100000,-0.100000)"
fill="#000000" stroke="none">
<path d="M2508 2449 c-20 -4 -106 -45 -192 -89 -85 -44 -163 -80 -173 -80 -10
0 -42 -13 -71 -29 l-53 -30 -47 22 c-45 21 -60 22 -332 22 -270 0 -287 -1
-331 -21 -49 -23 -91 -61 -131 -119 -12 -19 -26 -35 -29 -35 -3 0 -22 24 -42
53 -82 119 -125 130 -470 125 -241 -3 -266 -5 -307 -24 -114 -54 -166 -177
-125 -294 8 -23 93 -155 188 -294 96 -138 204 -295 241 -349 l66 -98 0 -318
c0 -370 2 -384 80 -454 26 -24 66 -49 88 -55 52 -16 496 -16 558 -1 61 16 137
85 160 147 10 26 19 49 21 51 1 2 26 -12 55 -32 67 -45 156 -75 250 -83 70 -7
75 -9 124 -54 67 -63 88 -73 234 -108 213 -51 272 -57 585 -57 317 0 404 9
613 65 111 30 194 77 233 131 17 24 27 29 63 29 73 0 146 19 221 56 l72 36 74
-50 c180 -123 350 -172 593 -172 228 0 401 45 563 147 141 88 234 189 301 330
l37 78 6 -170 c6 -188 15 -224 71 -283 62 -63 108 -72 382 -72 287 0 313 6
389 83 l48 49 40 -45 c69 -79 105 -87 393 -87 288 0 313 5 389 83 l48 49 36
-41 c70 -82 83 -86 376 -89 222 -3 265 -1 309 14 63 21 132 87 148 141 8 27
10 262 8 815 l-3 776 -30 44 c-21 30 -48 52 -90 73 l-60 30 -232 4 c-312 4
-377 -12 -439 -110 l-26 -41 -20 32 c-26 43 -53 66 -108 93 l-45 22 -1120 0
-1120 0 -57 -27 c-68 -32 -112 -86 -127 -159 -7 -31 -11 -210 -11 -474 0 -415
0 -424 -20 -430 -36 -11 -57 3 -64 43 -3 20 -6 222 -6 448 0 453 0 449 -62
520 -61 70 -94 77 -348 82 -150 3 -245 0 -282 -7 -81 -17 -146 -69 -183 -146
-2 -5 -10 -1 -17 9 -54 81 -118 129 -215 162 -26 9 -111 49 -188 90 -151 78
-198 92 -261 75 -37 -10 -55 -20 -130 -76 -12 -9 -49 -20 -82 -26 -81 -14
-148 0 -206 45 -66 50 -143 71 -208 55z m201 -325 c67 -13 128 -27 135 -33 7
-6 30 -3 66 9 30 10 95 25 145 33 87 15 114 29 127 69 3 7 25 -1 59 -20 126
-70 239 -122 266 -122 38 0 73 -26 73 -54 0 -28 -24 -51 -45 -42 -22 8 -18 25
7 35 l22 8 -21 11 c-16 9 -24 8 -37 -7 -9 -10 -13 -20 -10 -24 4 -3 -1 -13
-10 -22 -25 -25 -19 -35 15 -28 18 3 30 2 27 -3 -2 -5 -12 -26 -21 -46 -10
-21 -22 -38 -27 -38 -6 0 -10 -8 -10 -19 0 -14 -6 -17 -24 -14 -21 4 -28 -2
-50 -46 -14 -27 -35 -55 -47 -62 -25 -13 -13 -31 23 -36 27 -4 48 -29 48 -56
0 -16 2 -17 15 -7 20 17 28 7 28 -30 0 -16 5 -30 10 -30 6 0 7 -18 4 -41 -6
-43 -4 -44 46 -24 24 10 23 -29 -2 -54 -13 -13 -16 -21 -8 -24 9 -3 9 -9 1
-24 -10 -17 -8 -21 18 -31 28 -10 29 -12 14 -27 -9 -9 -16 -24 -16 -33 0 -8
-10 -26 -21 -38 l-22 -23 27 -7 c14 -3 26 -11 26 -17 0 -5 11 2 25 17 24 26
45 34 45 16 0 -5 13 -7 29 -4 37 8 71 -11 71 -38 0 -17 -3 -18 -15 -8 -12 10
-20 7 -42 -17 -16 -16 -27 -37 -25 -45 2 -10 -7 -18 -23 -22 -14 -4 -34 -20
-43 -36 -18 -28 -18 -28 -31 -8 -15 25 -26 17 -12 -9 8 -16 5 -22 -18 -36 -31
-18 -48 -12 -29 10 15 18 4 27 -59 47 -65 22 -98 47 -123 97 -18 34 -19 39 -4
39 12 0 8 9 -16 37 -28 31 -31 41 -26 74 5 29 0 49 -18 84 -21 38 -22 47 -10
52 33 13 7 112 -39 144 -5 4 -4 10 2 13 7 5 4 14 -9 28 -22 23 -26 38 -11 38
6 0 6 12 1 31 -9 31 -7 46 13 87 13 28 37 30 30 2 -3 -12 1 -28 10 -38 9 -10
20 -28 25 -42 l9 -24 12 22 c8 14 8 28 2 40 -5 9 -7 32 -5 51 2 19 -1 40 -7
47 -8 9 -5 15 9 23 14 8 18 17 15 32 -4 14 0 25 9 30 10 5 14 18 10 34 -2 15
0 25 7 25 6 0 11 9 11 20 0 24 18 26 35 3 11 -15 13 -15 24 5 7 13 16 20 21
17 5 -3 11 -2 13 2 3 5 -40 31 -94 60 l-100 51 -9 -23 c-11 -28 -42 -38 -189
-60 -57 -9 -113 -21 -123 -26 -14 -7 -29 -7 -51 1 -18 6 -85 19 -149 30 -128
21 -154 30 -163 59 -5 17 -14 14 -105 -33 -90 -47 -108 -61 -77 -61 7 0 14
-15 17 -33 l5 -33 13 31 c16 35 32 39 39 10 3 -11 10 -20 15 -20 5 0 7 -13 3
-30 -5 -24 -3 -30 10 -30 13 0 16 -6 12 -25 -3 -18 1 -29 15 -36 14 -8 17 -14
9 -23 -6 -7 -9 -29 -7 -48 6 -43 -5 -60 -38 -60 -14 0 -26 -6 -26 -12 -1 -6
-15 5 -32 24 -17 19 -27 28 -23 20 14 -27 48 -59 56 -54 5 3 9 0 9 -5 0 -6 15
-11 33 -11 28 0 35 6 56 44 12 25 20 49 16 55 -3 6 1 11 9 11 9 0 16 -7 16
-15 0 -8 4 -15 9 -15 13 0 20 -49 11 -81 -6 -19 -4 -30 3 -33 8 -3 6 -10 -6
-20 -10 -8 -20 -27 -22 -42 -1 -15 -10 -33 -19 -39 -9 -7 -16 -18 -16 -25 0
-7 -8 -10 -18 -8 -23 6 -29 -37 -7 -46 8 -3 15 -12 15 -20 0 -7 7 -17 16 -20
16 -6 16 -8 0 -24 -9 -10 -16 -23 -16 -29 0 -6 -7 -23 -15 -39 -10 -20 -11
-30 -3 -35 6 -4 8 -18 4 -35 -4 -16 -8 -45 -9 -64 -1 -20 -7 -34 -13 -33 -7 1
-17 -11 -24 -28 -17 -41 -60 -74 -122 -94 -65 -21 -75 -30 -59 -49 19 -22 -5
-29 -34 -10 -15 10 -24 23 -21 30 19 46 18 48 -4 25 l-23 -24 -9 22 c-4 12
-24 29 -43 37 -20 8 -33 19 -29 25 3 6 -6 24 -22 40 -22 23 -30 26 -42 17 -11
-10 -13 -8 -10 12 4 31 50 50 78 32 17 -10 20 -10 20 3 0 21 12 19 39 -6 17
-16 25 -19 31 -10 4 7 10 12 14 12 35 -5 37 0 12 30 -14 17 -26 39 -26 49 0
10 -6 21 -12 23 -7 3 1 11 18 18 28 11 30 15 20 32 -8 15 -8 21 2 24 10 4 8 9
-7 20 -12 8 -21 25 -21 39 0 28 1 28 35 12 32 -14 38 -8 26 25 -8 20 -7 30 3
39 7 7 11 21 9 32 -2 12 1 27 6 35 8 12 12 12 25 2 14 -12 16 -11 16 6 0 27
23 56 46 58 41 3 46 15 18 43 -14 15 -36 43 -48 62 -15 23 -30 35 -44 34 -15
0 -22 5 -22 18 0 10 -4 18 -10 18 -5 0 -17 17 -27 38 -9 20 -19 40 -21 45 -6
12 33 8 46 -5 9 -9 12 -9 12 -1 0 7 -5 15 -10 18 -6 4 -8 11 -5 16 4 5 1 9 -5
9 -7 0 -10 6 -7 14 3 8 -2 21 -12 30 -15 14 -20 14 -37 1 -17 -13 -17 -14 -1
-15 20 0 24 -40 4 -40 -20 0 -37 21 -37 46 0 29 35 54 74 54 27 0 144 54 267
124 l44 24 25 -30 c23 -27 38 -32 149 -54z m4723 -47 l27 -22 2 -210 2 -210
-69 -6 c-41 -4 -74 -2 -81 3 -15 12 -17 130 -7 301 6 97 9 108 35 136 33 37
55 39 91 8z m-6417 -217 c66 -99 123 -180 127 -180 4 0 20 19 35 43 40 58 183
267 202 294 16 22 20 22 254 23 130 0 237 -2 237 -5 0 -2 -29 -46 -64 -97
-115 -166 -145 -210 -297 -430 l-149 -217 0 -341 0 -340 -215 0 -215 0 0 338
0 338 -92 134 c-51 74 -116 169 -144 210 -130 187 -274 400 -274 405 0 3 107
5 238 5 l237 -1 120 -179z m3435 -217 c0 -226 5 -426 10 -462 18 -105 54 -161
135 -204 33 -18 57 -21 140 -22 113 0 160 17 209 76 63 75 61 51 64 552 l3
457 210 0 209 0 0 -456 c0 -509 -3 -540 -67 -671 -45 -94 -100 -155 -191 -214
-141 -93 -271 -124 -485 -116 -164 5 -245 24 -353 81 -124 65 -228 192 -276
336 -21 62 -22 84 -25 553 l-4 487 210 0 211 0 0 -397z m2170 227 l0 -170
-160 0 -160 0 0 -545 0 -545 -220 0 -220 0 0 545 0 545 -165 0 -165 0 0 170 0
170 545 0 545 0 0 -170z m548 -107 l2 -273 215 0 215 0 0 275 0 275 220 0 220
0 0 -715 0 -715 -220 0 -220 0 0 275 0 275 -215 0 -215 0 0 -275 0 -275 -220
0 -220 0 0 715 0 715 218 -2 217 -3 3 -272z m-4591 173 c21 -8 73 -25 115 -37
l77 -22 15 -86 c24 -131 26 -127 -42 -91 -39 20 -72 48 -98 83 -136 179 -136
179 -67 153z m591 -18 c-14 -18 -49 -66 -79 -106 -39 -54 -70 -83 -113 -108
-32 -19 -60 -33 -63 -31 -6 7 25 189 34 198 7 7 217 76 237 78 4 1 -3 -14 -16
-31z m632 -269 c0 -200 -10 -262 -23 -147 -4 29 -17 73 -30 98 -33 64 -27 157
15 218 16 23 31 42 33 42 3 0 5 -95 5 -211z m-1787 58 c5 -56 3 -69 -24 -121
-17 -34 -29 -75 -29 -97 0 -32 -5 -40 -34 -58 -79 -49 -146 -155 -146 -233 0
-13 -8 -18 -27 -18 -31 0 -107 -32 -117 -49 -4 -6 -14 -11 -23 -11 -25 0 -7
63 44 154 63 111 325 495 339 496 6 0 14 -27 17 -63z m301 23 c7 0 16 -9 19
-21 5 -17 2 -20 -14 -16 -15 4 -19 2 -15 -9 7 -19 -21 -18 -40 1 -9 8 -12 15
-8 15 3 0 1 7 -6 15 -9 10 -9 15 -1 15 6 0 11 6 11 14 0 22 24 25 32 4 4 -10
14 -18 22 -18z m1144 31 c18 -11 22 -62 6 -78 -15 -15 -58 -18 -49 -3 3 6 0
10 -8 10 -22 0 -9 38 15 46 11 3 17 12 14 20 -6 16 2 18 22 5z m-611 -226 l1
-110 -19 105 c-23 129 -23 122 -1 118 15 -3 17 -17 19 -113z m47 67 c-3 -26
-12 -77 -19 -112 l-13 -65 -1 106 c-1 107 2 119 26 119 11 0 12 -11 7 -48z
m46 -169 l-1 -178 -42 -48 -42 -48 -38 50 -37 50 1 173 1 173 36 -215 c28
-167 37 -208 43 -185 9 36 45 230 60 333 6 39 13 72 15 72 2 0 4 -80 4 -177z
m-184 -308 c-8 -8 -17 -15 -20 -15 -3 0 -3 7 0 15 4 8 13 15 21 15 12 0 12 -2
-1 -15z m238 -1 c4 -9 4 -19 1 -22 -2 -3 -7 3 -11 12 -3 9 -10 13 -15 10 -5
-3 -9 0 -9 5 0 17 27 13 34 -5z m-277 0 c-3 -3 -12 -4 -19 -1 -8 3 -5 6 6 6
11 1 17 -2 13 -5z m320 0 c-3 -3 -12 -4 -19 -1 -8 3 -5 6 6 6 11 1 17 -2 13
-5z m-507 -24 c0 -5 -4 -10 -10 -10 -5 0 -7 -7 -4 -15 5 -11 -1 -15 -21 -15
l-27 0 23 25 c25 26 39 31 39 15z m709 -15 c18 -20 20 -25 7 -25 -9 0 -34 -13
-56 -29 -40 -29 -76 -32 -92 -8 -3 6 -15 11 -25 12 -26 2 -74 35 -50 35 9 0
17 -4 17 -9 0 -5 18 -11 40 -15 27 -4 39 -10 34 -18 -5 -8 -2 -9 9 -5 10 3 17
2 17 -4 0 -6 5 -7 11 -4 6 4 8 13 6 19 -4 9 2 11 19 8 18 -3 26 1 33 19 5 14
5 25 0 27 -11 4 -12 22 -1 22 4 0 18 -12 31 -25z m-679 -27 c0 -4 -4 -8 -9 -8
-6 0 -12 4 -15 8 -3 5 1 9 9 9 8 0 15 -4 15 -9z m137 -11 c-13 -13 -25 -18
-29 -13 -4 6 -14 3 -26 -7 -22 -20 -70 -22 -95 -3 -16 13 -16 14 7 18 16 3 23
1 19 -7 -2 -8 5 -12 21 -12 14 0 26 3 26 8 0 4 16 11 35 15 19 3 35 10 35 15
0 5 7 9 15 9 10 0 8 -6 -8 -23z m503 17 c0 -8 -19 -13 -24 -6 -3 5 1 9 9 9 8
0 15 -2 15 -3z m-445 -34 c-3 -5 -11 -10 -16 -10 -6 0 -7 5 -4 10 3 6 11 10
16 10 6 0 7 -4 4 -10z m240 0 c3 -5 2 -10 -4 -10 -5 0 -13 5 -16 10 -3 6 -2
10 4 10 5 0 13 -4 16 -10z m427 -27 c24 -9 69 -34 101 -56 32 -21 79 -46 104
-54 59 -20 154 -13 212 16 24 12 45 20 47 18 3 -2 -9 -30 -25 -61 -30 -55 -30
-56 -8 -56 12 0 37 9 55 20 17 11 32 18 32 15 0 -23 -32 -61 -72 -85 -75 -47
-125 -42 -257 22 -58 28 -109 56 -114 62 -4 6 -12 28 -17 48 -9 32 -16 38 -46
44 -19 3 -60 1 -91 -5 -63 -12 -73 -9 -73 23 0 27 17 44 57 56 41 12 48 12 95
-7z m-347 -3 c3 -5 1 -10 -4 -10 -6 0 -11 5 -11 10 0 6 2 10 4 10 3 0 8 -4 11
-10z m-665 -20 c24 -13 27 -52 5 -70 -12 -10 -23 -9 -55 4 -82 33 -129 15
-150 -58 -10 -37 -17 -45 -42 -50 -16 -3 -57 -22 -91 -43 -52 -31 -73 -37
-132 -41 -59 -3 -77 0 -115 20 -25 14 -51 37 -58 52 -16 31 -10 45 12 27 17
-14 72 -31 79 -24 3 2 -10 27 -29 55 -45 67 -45 81 4 57 61 -30 153 -50 197
-43 47 8 71 19 154 74 33 22 71 45 83 50 27 12 109 6 138 -10z m155 -76 c33
-7 80 -14 105 -14 70 -1 120 -16 151 -46 37 -36 38 -55 2 -49 -16 3 -63 10
-106 16 -83 11 -233 51 -248 66 -15 15 2 55 20 48 9 -4 43 -13 76 -21z m695 6
c8 -16 6 -22 -14 -36 -31 -20 -147 -50 -246 -64 -41 -6 -87 -12 -103 -15 -27
-5 -27 -4 -12 24 21 43 85 68 185 74 47 3 103 13 125 21 52 19 53 19 65 -4z
m160 10 c3 -1 8 -2 12 -1 4 0 12 -8 18 -18 11 -21 -2 -37 -20 -26 -5 3 -7 0
-4 -8 3 -10 -4 -17 -23 -22 -15 -5 -32 -7 -36 -6 -5 1 -6 -3 -3 -8 3 -5 0 -11
-8 -14 -9 -4 -24 9 -40 33 -32 48 -32 50 -3 50 12 1 33 7 46 14 21 12 41 14
61 6z m-1090 -32 c6 -16 9 -18 9 -7 1 14 7 16 35 9 19 -4 37 -5 40 -2 8 7 7
-17 0 -45 -4 -13 -10 -20 -15 -17 -5 3 -9 -2 -9 -10 0 -11 -6 -13 -29 -6 -16
4 -32 6 -35 3 -3 -3 -9 2 -12 11 -5 14 -9 15 -15 4 -7 -11 -11 -10 -19 2 -5 8
-10 11 -10 6 0 -6 -6 -1 -14 9 -16 22 -10 52 13 58 36 10 52 6 61 -15z m1137
-48 c-3 -11 -1 -18 4 -14 5 3 9 2 10 -3 1 -9 4 -23 20 -82 11 -40 10 -45 -7
-59 -16 -13 -16 -14 -1 -9 13 5 17 1 17 -22 0 -64 -57 -90 -295 -133 -102 -19
-156 -22 -365 -23 -214 0 -262 3 -375 23 -124 22 -258 61 -277 80 -14 14 -23
86 -10 78 8 -5 10 -1 5 10 -5 13 -3 15 8 9 10 -6 11 -5 3 4 -16 18 -5 74 14
66 11 -4 12 -2 4 8 -11 12 -6 57 6 57 3 0 13 -6 21 -14 15 -12 120 -31 411
-73 177 -25 448 -25 550 1 78 20 174 61 225 95 37 26 39 26 32 1z"/>
<path d="M2352 1935 c0 -16 2 -22 5 -12 2 9 2 23 0 30 -3 6 -5 -1 -5 -18z"/>
<path d="M3372 1935 c0 -16 2 -22 5 -12 2 9 2 23 0 30 -3 6 -5 -1 -5 -18z"/>
<path d="M3401 1905 c-3 -53 -22 -107 -56 -153 -20 -26 -21 -31 -6 -17 11 12
41 57 66 100 25 44 36 70 25 57 l-19 -23 -4 38 -4 38 -2 -40z"/>
<path d="M2321 1896 l-1 -28 -20 23 c-12 13 -6 -1 11 -31 39 -67 44 -72 33
-40 -4 14 -11 43 -15 65 -5 32 -7 34 -8 11z"/>
<path d="M2400 1860 c-6 -11 -9 -20 -8 -20 2 0 11 9 21 20 9 11 13 20 7 20 -5
0 -14 -9 -20 -20z"/>
<path d="M3312 1866 c7 -8 15 -12 17 -11 5 6 -10 25 -20 25 -5 0 -4 -6 3 -14z"/>
<path d="M2505 1679 c-4 -6 -5 -12 -2 -15 2 -3 7 2 10 11 7 17 1 20 -8 4z"/>
<path d="M3190 1677 c0 -2 6 -10 14 -16 11 -9 16 -9 22 1 4 7 4 10 -1 6 -4 -4
-14 -3 -22 3 -7 6 -13 9 -13 6z"/>
<path d="M2440 1646 c0 -9 5 -16 10 -16 6 0 10 4 10 9 0 6 -4 13 -10 16 -5 3
-10 -1 -10 -9z"/>
<path d="M2320 1585 c0 -5 5 -17 10 -25 5 -8 10 -10 10 -5 0 6 -5 17 -10 25
-5 8 -10 11 -10 5z"/>
<path d="M2362 1515 c0 -16 2 -22 5 -12 2 9 2 23 0 30 -3 6 -5 -1 -5 -18z"/>
<path d="M3362 1520 c0 -14 2 -19 5 -12 2 6 2 18 0 25 -3 6 -5 1 -5 -13z"/>
<path d="M2331 1514 c0 -11 3 -14 6 -6 3 7 2 16 -1 19 -3 4 -6 -2 -5 -13z"/>
<path d="M2308 1445 c10 -16 22 -37 25 -45 5 -13 6 -13 6 0 1 8 -11 29 -25 45
l-26 30 20 -30z"/>
<path d="M3411 1444 c-12 -15 -21 -34 -20 -43 0 -10 4 -6 10 9 6 13 17 33 26
42 9 10 13 18 10 18 -3 0 -15 -12 -26 -26z"/>
<path d="M2410 1445 c-7 -9 -11 -17 -9 -20 3 -2 10 5 17 15 14 24 10 26 -8 5z"/>
<path d="M3312 1438 c7 -15 15 -23 17 -17 2 6 -4 18 -13 27 -15 15 -15 15 -4
-10z"/>
<path d="M2306 1318 c10 -14 21 -24 23 -22 3 3 -6 15 -18 27 l-24 22 19 -27z"/>
<path d="M3411 1314 c-12 -15 -21 -32 -21 -38 0 -6 6 -2 12 9 6 11 18 28 26
38 8 9 12 17 9 17 -3 0 -15 -12 -26 -26z"/>
<path d="M3341 1314 c0 -11 3 -14 6 -6 3 7 2 16 -1 19 -3 4 -6 -2 -5 -13z"/>
<path d="M3433 1215 c-3 -9 -3 -18 -1 -21 3 -3 8 4 11 16 6 23 -1 27 -10 5z"/>
<path d="M2291 1194 c0 -11 3 -14 6 -6 3 7 2 16 -1 19 -3 4 -6 -2 -5 -13z"/>
<path d="M2220 1180 c0 -5 7 -7 15 -4 11 5 15 -2 15 -27 l0 -33 22 21 c18 18
19 24 8 37 -14 17 -60 22 -60 6z"/>
<path d="M3450 1174 c-11 -13 -10 -19 8 -37 l22 -21 0 33 c0 25 4 32 15 27 8
-3 15 -1 15 4 0 16 -46 11 -60 -6z"/>
<path d="M3550 1155 c-13 -14 -22 -27 -19 -29 2 -2 14 10 27 25 29 36 24 38
-8 4z"/>
<path d="M2160 1166 c0 -2 8 -10 18 -17 15 -13 16 -12 3 4 -13 16 -21 21 -21
13z"/>
<path d="M2181 1094 c0 -11 3 -14 6 -6 3 7 2 16 -1 19 -3 4 -6 -2 -5 -13z"/>
<path d="M3326 848 c3 -5 10 -6 15 -3 13 9 11 12 -6 12 -8 0 -12 -4 -9 -9z"/>
<path d="M2347 658 c7 -35 15 -67 16 -72 2 -5 19 13 38 40 47 65 52 74 42 74
-5 0 -17 -16 -27 -35 -11 -19 -23 -35 -28 -35 -7 0 -12 31 -11 68 1 6 -3 12
-7 12 -5 0 -15 3 -23 6 -13 5 -13 -3 0 -58z"/>
<path d="M3356 712 c-3 -6 -1 -14 5 -17 14 -9 20 -2 10 14 -6 8 -11 9 -15 3z"/>
<path d="M3293 694 c-9 -24 10 -48 46 -58 25 -7 31 -14 28 -28 -7 -24 9 -23
22 1 13 24 -5 49 -44 60 -19 5 -29 14 -29 24 2 22 -15 22 -23 1z"/>
<path d="M3230 696 c0 -2 7 -9 15 -16 12 -10 15 -10 15 4 0 9 -7 16 -15 16 -8
0 -15 -2 -15 -4z"/>
<path d="M2476 668 c-3 -13 -6 -34 -6 -49 0 -14 -5 -30 -12 -37 -9 -9 -6 -12
15 -12 22 0 27 5 27 25 0 26 25 35 33 13 2 -7 6 0 9 15 4 20 2 25 -5 18 -18
-18 -27 -13 -27 15 0 27 6 28 53 9 9 -4 17 -3 17 3 0 11 -34 22 -71 22 -19 0
-28 -6 -33 -22z"/>
<path d="M3166 665 c3 -13 7 -42 7 -64 2 -34 5 -39 22 -36 11 2 37 7 58 10 25
4 37 11 37 22 0 15 -2 15 -18 0 -10 -10 -28 -17 -39 -17 -17 0 -21 8 -27 46
-3 25 -3 50 0 55 3 5 -6 9 -21 9 -22 0 -25 -3 -19 -25z"/>
<path d="M2605 648 c-1 -18 -3 -46 -5 -62 -3 -17 0 -31 6 -33 7 -2 10 5 7 19
-2 13 0 33 4 46 8 22 10 21 43 -23 18 -25 37 -45 41 -45 4 0 9 27 11 60 1 33
0 60 -4 60 -5 0 -8 -17 -8 -37 -1 -36 -1 -37 -16 -18 -56 74 -79 83 -79 33z"/>
<path d="M3085 666 c12 -8 16 -19 12 -30 -9 -23 -31 -15 -35 12 -2 13 -11 22
-21 22 -15 0 -17 -7 -11 -52 5 -35 3 -55 -4 -60 -6 -4 7 -7 29 -7 22 0 34 3
28 6 -7 2 -13 14 -13 26 l0 20 23 -21 c13 -12 34 -22 47 -22 l23 0 -27 27
c-18 18 -23 30 -16 37 17 17 11 43 -12 50 -36 9 -43 7 -23 -8z"/>
<path d="M2740 653 c0 -13 3 -14 12 -5 23 23 30 11 26 -48 l-3 -60 30 1 c17 0
24 3 18 6 -19 7 -17 113 2 113 7 0 19 -8 24 -17 9 -16 10 -16 11 5 0 20 -4 22
-60 22 -50 0 -60 -3 -60 -17z"/>
<path d="M2880 614 c4 -32 12 -59 21 -65 20 -13 63 -11 77 3 13 13 17 118 5
118 -5 0 -6 -22 -5 -48 4 -52 -14 -80 -44 -68 -12 5 -15 18 -12 61 3 53 2 55
-23 55 -25 0 -25 -1 -19 -56z"/>
<path d="M3227 647 c-3 -8 1 -21 9 -27 15 -13 17 -6 5 24 -6 17 -8 17 -14 3z"/>
<path d="M3300 603 c0 -15 7 -20 25 -20 14 0 25 0 23 1 -2 1 -13 10 -25 20
-23 19 -23 19 -23 -1z"/>
<path d="M2555 581 c-6 -5 -19 -11 -30 -14 -13 -3 -9 -5 13 -6 22 -1 32 4 32
14 0 17 -2 18 -15 6z"/>
</g>
</svg>
